PathFileType	4	(x/y/z)	S02_PSF_T03
DataRate	CameraRate	NumFrames	NumMarkers	Units	OrigDataRate	OrigDataStartFrame	OrigNumFrames
240	240	4	51	mm	240	1	394
Frame#	Time	Sternum			R.Acromium			L.Acromium			Top.Head			R.ASIS			L.ASIS			R.PSIS			L.PSIS			R.Great.Tro			L.Great.Tro			R.Iliac.Crest			L.Iliac.Crest			V.Sacral			R.Thigh.Upper.Post			R.Thigh.Lower.Ant			R.Thigh.Lower.Post			R.Thigh.Upper.Ant			R.Knee.Lat			R.Knee.Med			R.Shank.Upper.Post			R.Shank.Lower.Ant			R.Shank.Lower.Post			R.Shank.Upper.Ant			R.Ankle.Lat			R.Ankle.Med			R.Heel.Upper			R.Heel.Med			R.Heel.Lat			R.Toe.Lat			R.Toe.Med			R.Toe.Tip			L.Thigh.Upper.Post			L.Thigh.Lower.Ant			L.Thigh.Lower.Post			L.Thigh.Upper.Ant			L.Knee.Lat			L.Knee.Med			L.Shank.Upper.Post			L.Shank.Lower.Ant			L.Shank.Lower.Post			L.Shank.Upper.Ant			L.Ankle.Lat			L.Ankle.Med			L.Heel.Upper			L.Heel.Med			L.Heel.Lat			L.Toe.Lat			L.Toe.Med			L.Toe.Tip			Cervical.Spine			Back			
		X1	Y1	Z1	X2	Y2	Z2	X3	Y3	Z3	X4	Y4	Z4	X5	Y5	Z5	X6	Y6	Z6	X7	Y7	Z7	X8	Y8	Z8	X9	Y9	Z9	X10	Y10	Z10	X11	Y11	Z11	X12	Y12	Z12	X13	Y13	Z13	X14	Y14	Z14	X15	Y15	Z15	X16	Y16	Z16	X17	Y17	Z17	X18	Y18	Z18	X19	Y19	Z19	X20	Y20	Z20	X21	Y21	Z21	X22	Y22	Z22	X23	Y23	Z23	X24	Y24	Z24	X25	Y25	Z25	X26	Y26	Z26	X27	Y27	Z27	X28	Y28	Z28	X29	Y29	Z29	X30	Y30	Z30	X31	Y31	Z31	X32	Y32	Z32	X33	Y33	Z33	X34	Y34	Z34	X35	Y35	Z35	X36	Y36	Z36	X37	Y37	Z37	X38	Y38	Z38	X39	Y39	Z39	X40	Y40	Z40	X41	Y41	Z41	X42	Y42	Z42	X43	Y43	Z43	X44	Y44	Z44	X45	Y45	Z45	X46	Y46	Z46	X47	Y47	Z47	X48	Y48	Z48	X49	Y49	Z49	X50	Y50	Z50	X51	Y51	Z51	

1	0	NaN	NaN	NaN	-1576.9	1306.3	440.14	-1607.3	1318.7	149.38	-1536.4	1597.3	292.31	NaN	NaN	NaN	NaN	NaN	NaN	-1738.7	953.29	325.92	-1733.6	957.39	251.19	-1636.1	781.17	489.6	-1596.5	794.33	95.759	-1650.6	950.7	453.83	-1618.1	949.69	117.04	-1766.6	912.57	279.09	-1695.3	599.03	460.03	NaN	NaN	NaN	-1733.2	520.13	435.63	-1621.5	585.21	441.1	-1743.4	439.67	416.72	-1755.5	436.97	271.9	NaN	NaN	NaN	-1845.1	175.96	367.42	NaN	NaN	NaN	-1827.7	239.04	388.97	-1927.8	111.8	361.35	-1918.5	126.32	274.03	-1991.7	100.05	304.25	-1980.2	65.233	277.64	-1994.7	68.863	339.95	-1832.9	45.516	385.78	-1799	39.316	280.23	-1750.5	63.347	336.42	-1539	581.41	117.05	-1437.8	541.17	136.05	-1505.8	499.97	143.3	-1480.5	622.75	110.22	-1423.4	463.85	146.87	NaN	NaN	NaN	-1428.4	276.5	148.25	-1322.8	232.78	157.44	-1392.5	210.37	163.55	-1364.1	295.49	143.09	-1311.8	118.76	172.45	-1294.4	125.18	252.84	-1349.2	61.72	208.9	-1324	44.323	244.21	-1324.6	35.614	182.99	-1178.3	106	148.15	-1163.6	131.32	253.53	-1120.3	173.35	205.46	-1673.6	1378.3	305.38	-1753.2	1127.7	311.44
2	0.0041667	NaN	NaN	NaN	-1571.5	1305.6	439.4	-1601.7	1317.7	148.7	-1531.4	1596.5	291.46	NaN	NaN	NaN	NaN	NaN	NaN	-1733.4	952.27	325.6	-1728.3	956.43	250.93	-1631.2	780.27	489.44	-1591	793.85	95.696	-1645.6	949.73	453.67	-1612.6	948.73	116.9	-1761.2	911.44	278.73	-1691	598.43	459.95	-1661	503.52	420.56	-1728.3	519.33	435.46	-1616.5	584.4	441.24	-1739.7	439.17	416.78	-1750.3	435.96	271.83	NaN	NaN	NaN	-1842.7	176.48	367.37	NaN	NaN	NaN	-1824.2	239.32	388.75	-1926.7	113.03	361.69	-1916.5	127	274.19	-1990.9	102.09	304.72	-1979.7	67.255	277.96	-1994.1	70.778	340.29	-1832.7	45.519	385.86	-1799	39.276	280.25	-1750.3	63.11	336.36	-1533.4	580.71	117.2	-1432.2	540.68	136.3	-1500	499.36	143.49	-1474.9	622.21	110.35	-1417.7	463.15	147.07	NaN	NaN	NaN	-1423.2	275.89	147.94	-1318.8	231.11	158	-1389	209.31	163.93	-1359.5	294.13	143.62	-1309.2	117.14	172.96	-1292.1	123.16	253.52	-1347.1	60.639	209.12	-1322.4	42.924	244.47	-1322.9	34.464	183.22	-1175.6	103.15	149.27	-1161.4	128.18	254.72	-1117.5	169.91	206.94	-1668.1	1377.5	304.63	-1747.8	1126.9	311
3	0.0083333	NaN	NaN	NaN	-1565.9	1304.8	438.62	-1595.9	1316.6	147.99	-1526.1	1595.6	290.57	NaN	NaN	NaN	NaN	NaN	NaN	-1728	951.23	325.29	-1722.8	955.44	250.68	-1626	779.33	489.28	-1585.3	793.37	95.624	-1640.3	948.74	453.5	-1606.9	947.75	116.75	-1755.5	910.28	278.38	-1686.6	597.81	459.86	-1656.3	502.61	420.72	-1723.1	518.49	435.29	-1611.4	583.57	441.38	-1735.7	438.64	416.85	-1744.7	434.9	271.76	NaN	NaN	NaN	-1840.3	177.03	367.36	NaN	NaN	NaN	-1820.6	239.63	388.55	-1925.5	114.34	362.07	-1914.4	127.79	274.38	-1990	104.26	305.21	-1979.1	69.43	278.3	-1993.4	72.838	340.66	-1832.5	45.522	385.95	-1798.9	39.236	280.29	-1750.1	62.865	336.3	-1527.5	579.99	117.36	-1426.3	540.17	136.56	-1493.9	498.74	143.69	-1469	621.64	110.49	-1411.8	462.43	147.29	NaN	NaN	NaN	-1418	275.25	147.66	-1314.7	229.39	158.6	-1385.4	208.23	164.32	-1354.8	292.74	144.18	-1306.5	115.5	173.48	-1289.8	121.09	254.23	-1345	59.611	209.36	-1320.9	41.559	244.74	-1321.2	33.365	183.45	-1172.9	100.16	150.41	-1159.1	124.89	255.94	-1114.6	166.26	208.47	-1662.5	1376.6	303.83	-1742.1	1126	310.53
4	0.0125	NaN	NaN	NaN	-1560.1	1304.1	437.81	-1589.9	1315.6	147.25	-1520.6	1594.8	289.65	NaN	NaN	NaN	NaN	NaN	NaN	-1722.3	950.17	324.99	-1717.1	954.45	250.43	-1620.6	778.37	489.11	-1579.4	792.87	95.541	-1634.9	947.74	453.34	-1601	946.76	116.6	-1749.6	909.12	278.03	-1681.9	597.17	459.77	-1651.2	501.68	420.88	-1717.7	517.61	435.1	-1605.9	582.71	441.51	-1731.5	438.06	416.93	-1738.9	433.81	271.69	NaN	NaN	NaN	-1837.8	177.6	367.39	NaN	NaN	NaN	-1816.8	239.97	388.35	-1924.2	115.73	362.48	-1912.3	128.67	274.6	-1989	106.59	305.72	-1978.5	71.762	278.65	-1992.7	75.049	341.03	-1832.2	45.525	386.05	-1798.9	39.198	280.32	-1749.9	62.616	336.24	-1521.4	579.26	117.53	-1420.2	539.65	136.83	-1487.6	498.11	143.91	-1463	621.05	110.64	-1405.8	461.69	147.54	NaN	NaN	NaN	-1412.6	274.61	147.43	-1310.5	227.63	159.23	-1381.7	207.13	164.71	-1350	291.32	144.78	-1303.7	113.86	174.02	-1287.4	118.99	254.96	-1342.9	58.663	209.61	-1319.4	40.256	245	-1319.5	32.344	183.67	-1170.2	97.067	151.57	-1156.8	121.44	257.17	-1111.6	162.41	210.02	-1656.6	1375.8	302.99	-1736.3	1125.1	310.05
